<?xml version="1.0" encoding="UTF-8"?>
<svg version="1.1" xmlns="http://www.w3.org/2000/svg" width="600" height="600">
<path d="M0 0 C1.5159375 0.680625 1.5159375 0.680625 3.0625 1.375 C5.47401442 2.70902925 7.66828118 4.10824045 9.9375 5.66015625 C50.75704283 32.99103758 96.54062503 52.28023724 145.375 58.5 C146.35855469 58.63019531 147.34210938 58.76039062 148.35546875 58.89453125 C163.79562574 60.85675916 179.27699132 61.22029427 194.8190918 61.47680664 C209.10150318 61.72206759 221.10289089 62.51120776 232.1875 72.5 C242.88763549 84.31467364 242.9013645 96.6795992 242.875 111.76171875 C242.89221348 113.89541564 242.91177229 116.02909473 242.93351746 118.16275024 C242.9830327 123.83493076 242.99433555 129.50655552 242.99596786 135.17892838 C243.00136268 139.87323725 243.02778099 144.56734486 243.05324459 149.26158047 C243.22450279 182.31877003 242.89104713 215.3056125 241.13671875 248.32189941 C240.96586737 251.66860333 240.82561461 255.01612833 240.68833923 258.36434937 C239.3830788 289.88305151 235.09196769 320.98740738 228.63525391 351.84570312 C228.03164395 354.84287477 227.51412983 357.84387372 227.01171875 360.859375 C226.30923514 364.79694275 225.28725527 368.33662961 223.78564453 372.03759766 C222.94341596 374.14133702 222.2293775 376.2635475 221.52734375 378.41796875 C210.06870026 413.04434154 191.00647509 440.67591055 165 466 C164.34 466.66 163.68 467.32 163 468 C157.75514538 472.64884841 152.27212784 476.95414791 146.71191406 481.21655273 C143.36423187 483.67429181 143.36423187 483.67429181 141 487 C139.25893861 487.98550644 137.51642756 488.96869079 135.76171875 489.9296875 C133.84005417 491.0018311 133.84005417 491.0018311 132 493 C129.84056771 495.15943229 127.5400659 496.43148949 124.89068604 497.91360474 C121.99813849 499.57567337 119.2555619 501.44127721 116.4921875 503.30859375 C115.25554877 504.14060538 114.01880983 504.97246809 112.78198242 505.80419922 C112.1439267 506.23440369 111.50587097 506.66460815 110.84848022 507.10784912 C99.51624352 514.74305028 88.09744451 522.17643985 76.41796875 529.2734375 C73.31548424 531.16308279 70.28227791 533.13053283 67.26953125 535.16015625 C64.08868536 537.29940051 60.89127333 539.26742785 57.5 541.0625 C56.58347656 541.55363281 55.66695313 542.04476562 54.72265625 542.55078125 C53.37494141 543.26814453 53.37494141 543.26814453 52 544 C50.30978936 544.91165893 48.622065 545.82795078 46.9375 546.75 C46.22464844 547.13671875 45.51179688 547.5234375 44.77734375 547.921875 C42.84193704 548.99950086 42.84193704 548.99950086 41 551 C39.45712328 551.82926098 37.89108952 552.61592326 36.3125 553.375 C28.64480018 556.93121203 28.64480018 556.93121203 22 562 C19.201411 563.51668498 16.34175777 564.8864998 13.48046875 566.28125 C11.1516845 567.43126692 8.84133395 568.6193549 6.55078125 569.84375 C-7.91654661 577.49053471 -20.19989539 579.6226473 -36 575 C-43.53591745 571.9281651 -43.53591745 571.9281651 -45 569 C-45.99 569 -46.98 569 -48 569 C-48 568.34 -48 567.68 -48 567 C-48.87132568 566.73751465 -49.74265137 566.4750293 -50.64038086 566.20458984 C-53.98245568 565.00629051 -56.71940746 563.55925704 -59.75390625 561.7265625 C-60.84638672 561.07179932 -61.93886719 560.41703613 -63.06445312 559.74243164 C-63.92115601 559.22376022 -63.92115601 559.22376022 -64.79516602 558.6946106 C-67.79487383 556.87915336 -70.80646591 555.08357814 -73.81640625 553.28515625 C-74.42086578 552.92330734 -75.02532532 552.56145844 -75.64810181 552.18864441 C-81.39661504 548.75138161 -87.18666803 545.38897473 -93 542.0625 C-93.87084229 541.56121582 -94.74168457 541.05993164 -95.63891602 540.54345703 C-96.43869873 540.08696777 -97.23848145 539.63047852 -98.0625 539.16015625 C-98.75472656 538.76449463 -99.44695312 538.36883301 -100.16015625 537.96118164 C-102.13892877 536.86535787 -102.13892877 536.86535787 -105 536 C-105 535.34 -105 534.68 -105 534 C-106.134375 533.731875 -107.26875 533.46375 -108.4375 533.1875 C-110.2009375 532.5996875 -110.2009375 532.5996875 -112 532 C-112.33 531.01 -112.66 530.02 -113 529 C-114.64455275 528.28050817 -116.31923769 527.63028587 -118 527 C-125.73172461 523.07420185 -132.87821063 518.28810065 -139.875 513.1875 C-142.82864004 510.89880317 -142.82864004 510.89880317 -146 510 C-146 509.34 -146 508.68 -146 508 C-146.66515625 507.77957031 -147.3303125 507.55914063 -148.015625 507.33203125 C-151.95685279 505.57292303 -155.25394015 503.19964122 -158.75 500.6875 C-159.48573242 500.16422119 -160.22146484 499.64094238 -160.97949219 499.10180664 C-167.21874617 494.63281193 -173.32624778 489.99736047 -179.37792969 485.27807617 C-182.81901747 482.60543121 -186.23841928 480.21229657 -190 478 C-191.70884005 476.37660195 -193.37446717 474.70680947 -195 473 C-198.17668899 469.73254847 -201.47664914 466.65832376 -204.875 463.625 C-210.1622372 458.88769832 -215.31447902 454.12984544 -219.8125 448.625 C-221.7292087 445.9683878 -221.7292087 445.9683878 -224 445 C-225.01948653 443.34518128 -226.01544562 441.67583724 -227 440 C-228.46923657 437.99269387 -229.94966137 435.99355718 -231.4375 434 C-240.49637896 421.58623324 -251.0993188 406.20593793 -254.625 391.0625 C-255.22953544 388.30690996 -255.22953544 388.30690996 -256 386 C-256.66 385.67 -257.32 385.34 -258 385 C-258.7109375 382.6640625 -258.7109375 382.6640625 -259.375 379.625 C-260.26558681 375.55834455 -261.4424052 371.78166529 -262.9375 367.90625 C-265.24748715 361.67808365 -266.47007908 355.40182285 -267.625 348.875 C-268.03269178 346.64301653 -268.44152438 344.41124111 -268.8515625 342.1796875 C-269.13942627 340.58870239 -269.13942627 340.58870239 -269.43310547 338.96557617 C-269.92624991 336.38580638 -270.49441247 333.84564866 -271.109375 331.29296875 C-272.16078904 326.6902751 -272.43902921 322.14488562 -272.625 317.4375 C-272.66367187 316.61958984 -272.70234375 315.80167969 -272.7421875 314.95898438 C-272.83510044 312.97297031 -272.91856777 310.98651792 -273 309 C-273.66 308.67 -274.32 308.34 -275 308 C-274.979375 307.05125 -274.95875 306.1025 -274.9375 305.125 C-274.93987787 302.35953239 -275.10587411 299.67368307 -275.41015625 296.92578125 C-276.17623136 289.50794856 -276.73555185 282.07414138 -277.30224609 274.63891602 C-277.43175969 272.95156168 -277.56351109 271.26437726 -277.69775391 269.57739258 C-279.72924128 244.03761392 -280.17518647 218.48641503 -280.23828125 192.875 C-280.24234894 191.44287095 -280.24646628 190.01074205 -280.25063133 188.57861328 C-280.26949083 181.86871329 -280.28378542 175.15882326 -280.2922433 168.44890213 C-280.30208546 160.77778639 -280.32866485 153.10695373 -280.36874419 145.43593788 C-280.3989733 139.44036449 -280.41371667 133.44487253 -280.41702431 127.44922447 C-280.41935725 123.8938954 -280.42809387 120.33887588 -280.45348549 116.78363037 C-280.48126337 112.83482771 -280.47691428 108.88640127 -280.4699707 104.9375 C-280.48278076 103.78516876 -280.49559082 102.63283752 -280.50878906 101.44558716 C-280.42720216 88.67649808 -276.15300475 79.83667195 -267.75 70.5 C-266 69 -266 69 -264 69 C-264 68.34 -264 67.68 -264 67 C-262.46163292 66.34634601 -260.91911234 65.70246397 -259.375 65.0625 C-258.08722656 64.52302734 -258.08722656 64.52302734 -256.7734375 63.97265625 C-251.01292194 61.9524191 -245.10762318 61.72335057 -239.0625 61.4375 C-238.18311768 61.3950415 -237.30373535 61.35258301 -236.39770508 61.30883789 C-222.94295388 60.74084236 -209.46320175 60.91496374 -196 61 C-195.505 60.01 -195.505 60.01 -195 59 C-192.55489713 58.70500625 -190.2047794 58.53227153 -187.75 58.4375 C-186.29554487 58.36252132 -184.84111803 58.28699191 -183.38671875 58.2109375 C-182.65372559 58.17581055 -181.92073242 58.14068359 -181.16552734 58.10449219 C-177.96255316 57.94994056 -174.76257787 57.76849835 -171.5625 57.5625 C-169.98662109 57.47162109 -169.98662109 57.47162109 -168.37890625 57.37890625 C-167.59386719 57.25386719 -166.80882812 57.12882812 -166 57 C-165.505 56.01 -165.505 56.01 -165 55 C-162.91109431 54.76813791 -160.82113363 54.54376042 -158.72802734 54.35351562 C-153.62854532 53.69269139 -148.74393128 52.17116822 -143.8125 50.75 C-142.70624268 50.43498535 -141.59998535 50.1199707 -140.46020508 49.79541016 C-132.51584913 47.50460974 -124.6864348 45.06025693 -117 42 C-116.17185791 41.67241699 -115.34371582 41.34483398 -114.49047852 41.00732422 C-106.64849248 37.83213832 -99.09886643 34.18828483 -91.55200195 30.37890625 C-89.54285443 29.36508681 -87.53048495 28.35789414 -85.51757812 27.3515625 C-78.76120666 24.00820731 -78.76120666 24.00820731 -72.21069336 20.28759766 C-70 19 -70 19 -68 19 C-67.67 18.34 -67.34 17.68 -67 17 C-64.76945699 15.62488775 -62.54193125 14.32677382 -60.25 13.0625 C-59.00494588 12.3663546 -57.76014972 11.66974763 -56.515625 10.97265625 C-55.91685547 10.64023926 -55.31808594 10.30782227 -54.70117188 9.96533203 C-53.1696142 9.09624778 -51.66840763 8.17419203 -50.171875 7.24609375 C-48 6 -48 6 -46 6 C-46 5.34 -46 4.68 -46 4 C-43.58535319 2.84973914 -41.16846682 1.70467795 -38.75 0.5625 C-38.06808594 0.23701172 -37.38617188 -0.08847656 -36.68359375 -0.42382812 C-36.01972656 -0.73642578 -35.35585938 -1.04902344 -34.671875 -1.37109375 C-34.0644043 -1.65911865 -33.45693359 -1.94714355 -32.83105469 -2.24389648 C-22.68862247 -6.43204483 -9.4642736 -5.06616999 0 0 Z " fill="#293F71" transform="translate(319,14)"/>
<path d="M0 0 C99 0 198 0 300 0 C300 18.48 300 36.96 300 56 C201 56 102 56 0 56 C0 37.52 0 19.04 0 0 Z " fill="#FEFEFE" transform="translate(150,272)"/>
<path d="M0 0 C2.76899037 2.76899037 3.09543979 5.93041826 4 9.625 C9.54722245 30.77175015 19.10840929 50.40017616 32 68 C32.69609375 68.97453125 33.3921875 69.9490625 34.109375 70.953125 C37.64268097 76.05577821 37.64268097 76.05577821 41.734375 80.69140625 C43 82 43 82 43 84 C43.99 84.33 44.98 84.66 46 85 C46 85.66 46 86.32 46 87 C46.66 87 47.32 87 48 87 C49.625 88.3125 49.625 88.3125 51 90 C51 90.99 51 91.98 51 93 C52.32 93.66 53.64 94.32 55 95 C55 95.66 55 96.32 55 97 C55.66 97 56.32 97 57 97 C57 97.66 57 98.32 57 99 C57.5775 99.268125 58.155 99.53625 58.75 99.8125 C61.05550043 101.02929189 63.02056192 102.30333879 65 104 C65 104.66 65 105.32 65 106 C65.59039062 106.27070313 66.18078125 106.54140625 66.7890625 106.8203125 C68.96979885 107.9838856 70.54975743 109.22114171 72.375 110.875 C75.41528977 113.55645729 78.6130225 115.76767392 82 118 C83.01801357 118.98165594 84.0246803 119.97591432 85 121 C85.66 121.33 86.32 121.66 87 122 C87 122.66 87 123.32 87 124 C87.5775 124.28875 88.155 124.5775 88.75 124.875 C90.83333333 125.91666667 92.91666667 126.95833333 95 128 C95 128.66 95 129.32 95 130 C95.99 130 96.98 130 98 130 C98 130.66 98 131.32 98 132 C98.67675781 132.23589844 99.35351562 132.47179687 100.05078125 132.71484375 C103.70314109 134.30640188 106.8721078 136.36956033 110.1875 138.5625 C114.49165198 141.45493747 114.49165198 141.45493747 119 144 C119 144.66 119 145.32 119 146 C119.7425 146.28875 120.485 146.5775 121.25 146.875 C123.56739797 147.82302644 125.77917115 148.84845911 128 150 C128 150.66 128 151.32 128 152 C128.99 152 129.98 152 131 152 C131 152.66 131 153.32 131 154 C131.7425 154.28875 132.485 154.5775 133.25 154.875 C135.56739797 155.82302644 137.77917115 156.84845911 140 158 C140 158.66 140 159.32 140 160 C140.87857666 160.18357056 140.87857666 160.18357056 141.77490234 160.37084961 C144.02796782 161.00790795 145.62360004 161.82984478 147.6015625 163.06640625 C148.58382812 163.6706543 148.58382812 163.6706543 149.5859375 164.28710938 C150.25882813 164.70798828 150.93171875 165.12886719 151.625 165.5625 C156.01188537 168.70066293 156.01188537 168.70066293 161 170 C161.495 170.556875 161.99 171.11375 162.5 171.6875 C165.50657508 174.46858195 168.59985407 175.88510726 172.2734375 177.640625 C175.88849907 179.44297661 179.2905517 181.53573254 182.73046875 183.6484375 C184.62224228 184.77503585 186.58624293 185.77920705 188.5625 186.75 C191 188 191 188 192 190 C193.97888961 190.72693904 195.97954558 191.39816251 198 192 C198 192.66 198 193.32 198 194 C198.87914062 194.26039063 199.75828125 194.52078125 200.6640625 194.7890625 C203.96861815 195.98860846 206.46586788 197.42135996 209.375 199.375 C222.05382321 207.63336863 235.58168617 213.08064097 250.9609375 210.50390625 C257.11189465 209.10452397 262.43109663 207.05559646 267.94140625 203.98828125 C270 203 270 203 273 203 C273 202.34 273 201.68 273 201 C273.96039185 200.47829224 273.96039185 200.47829224 274.94018555 199.94604492 C277.85656606 198.36098089 280.7720402 196.77425684 283.6875 195.1875 C284.69490234 194.64029297 285.70230469 194.09308594 286.74023438 193.52929688 C287.71669922 192.99755859 288.69316406 192.46582031 289.69921875 191.91796875 C290.59471436 191.43094482 291.49020996 190.9439209 292.4128418 190.44213867 C294.20251459 189.44453584 295.9661901 188.39936708 297.70629883 187.31762695 C300 186 300 186 302 186 C302 185.34 302 184.68 302 184 C304.41632339 182.70768774 306.83304396 181.41612809 309.25 180.125 C309.93191406 179.76019531 310.61382812 179.39539063 311.31640625 179.01953125 C311.98027344 178.66503906 312.64414062 178.31054688 313.328125 177.9453125 C313.97072266 177.60145508 314.61332031 177.25759766 315.27539062 176.90332031 C316.59815355 176.21048016 317.94338453 175.56039565 319.296875 174.9296875 C321.06667425 174.06987972 321.06667425 174.06987972 322.41015625 172.5703125 C324.51999155 170.48639655 326.83223247 169.28191517 329.4375 167.875 C330.38496094 167.35679687 331.33242188 166.83859375 332.30859375 166.3046875 C334.58574366 165.20081512 336.53109526 164.47860565 339 164 C339 163.34 339 162.68 339 162 C340.65 161.67 342.3 161.34 344 161 C344 160.34 344 159.68 344 159 C345.45537568 158.16151196 346.91440373 157.32936066 348.375 156.5 C349.18710937 156.0359375 349.99921875 155.571875 350.8359375 155.09375 C353 154 353 154 355 154 C355 153.34 355 152.68 355 152 C357.90567134 149.98217268 360.51669784 148.64505596 364 148 C364 147.34 364 146.68 364 146 C364.99 146 365.98 146 367 146 C367 145.34 367 144.68 367 144 C367.58007812 143.68546875 368.16015625 143.3709375 368.7578125 143.046875 C372.40997161 141.04602215 376.01122001 139.05953999 379.4375 136.6875 C382 135 382 135 384 135 C384 134.34 384 133.68 384 133 C384.99 133 385.98 133 387 133 C387 132.34 387 131.68 387 131 C388.32 130.67 389.64 130.34 391 130 C391 129.34 391 128.68 391 128 C391.99 128 392.98 128 394 128 C394.33 127.01 394.66 126.02 395 125 C395.99 125 396.98 125 398 125 C398.37125 124.0409375 398.37125 124.0409375 398.75 123.0625 C400 121 400 121 402.0625 120.4375 C402.701875 120.293125 403.34125 120.14875 404 120 C404.33 119.01 404.66 118.02 405 117 C407.5625 115.8125 407.5625 115.8125 410 115 C410 114.34 410 113.68 410 113 C410.66 113 411.32 113 412 113 C412.33 112.01 412.66 111.02 413 110 C413.7425 109.71125 414.485 109.4225 415.25 109.125 C418.7301322 107.70130955 420.40104735 105.71983417 423 103 C424.28218011 101.86419986 425.57464594 100.73994712 426.875 99.625 C433.8104741 94.04923643 433.8104741 94.04923643 438.9375 86.99609375 C440.26884207 84.49493272 441.82606526 83.38150208 444.125 81.75 C444.84945313 81.22921875 445.57390625 80.7084375 446.3203125 80.171875 C446.87460937 79.78515625 447.42890625 79.3984375 448 79 C446.3325957 83.15335253 443.3368182 86.11133999 440.3125 89.3125 C439.77447754 89.88846924 439.23645508 90.46443848 438.68212891 91.05786133 C434.87043098 95.12233501 430.9938033 99.11381416 427 103 C426.34 103.66 425.68 104.32 425 105 C419.75514538 109.64884841 414.27212784 113.95414791 408.71191406 118.21655273 C405.36423187 120.67429181 405.36423187 120.67429181 403 124 C401.25893861 124.98550644 399.51642756 125.96869079 397.76171875 126.9296875 C395.84005417 128.0018311 395.84005417 128.0018311 394 130 C391.84056771 132.15943229 389.5400659 133.43148949 386.89068604 134.91360474 C383.99813849 136.57567337 381.2555619 138.44127721 378.4921875 140.30859375 C377.25554877 141.14060538 376.01880983 141.97246809 374.78198242 142.80419922 C373.82489883 143.44950592 373.82489883 143.44950592 372.84848022 144.10784912 C361.51624352 151.74305028 350.09744451 159.17643985 338.41796875 166.2734375 C335.31548424 168.16308279 332.28227791 170.13053283 329.26953125 172.16015625 C326.08868536 174.29940051 322.89127333 176.26742785 319.5 178.0625 C318.12521484 178.79919922 318.12521484 178.79919922 316.72265625 179.55078125 C315.82417969 180.02902344 314.92570312 180.50726562 314 181 C312.30978936 181.91165893 310.622065 182.82795078 308.9375 183.75 C308.22464844 184.13671875 307.51179688 184.5234375 306.77734375 184.921875 C304.84193704 185.99950086 304.84193704 185.99950086 303 188 C301.45712328 188.82926098 299.89108952 189.61592326 298.3125 190.375 C290.64480018 193.93121203 290.64480018 193.93121203 284 199 C281.201411 200.51668498 278.34175777 201.8864998 275.48046875 203.28125 C273.1516845 204.43126692 270.84133395 205.6193549 268.55078125 206.84375 C254.08345339 214.49053471 241.80010461 216.6226473 226 212 C218.46408255 208.9281651 218.46408255 208.9281651 217 206 C216.01 206 215.02 206 214 206 C214 205.34 214 204.68 214 204 C213.12867432 203.73751465 212.25734863 203.4750293 211.35961914 203.20458984 C208.01754432 202.00629051 205.28059254 200.55925704 202.24609375 198.7265625 C201.15361328 198.07179932 200.06113281 197.41703613 198.93554688 196.74243164 C198.36441162 196.3966507 197.79327637 196.05086975 197.20483398 195.6946106 C194.20512617 193.87915336 191.19353409 192.08357814 188.18359375 190.28515625 C187.57913422 189.92330734 186.97467468 189.56145844 186.35189819 189.18864441 C180.60338496 185.75138161 174.81333197 182.38897473 169 179.0625 C167.69373657 178.31057373 167.69373657 178.31057373 166.36108398 177.54345703 C165.16140991 176.85872314 165.16140991 176.85872314 163.9375 176.16015625 C162.89916016 175.56666382 162.89916016 175.56666382 161.83984375 174.96118164 C159.86107123 173.86535787 159.86107123 173.86535787 157 173 C157 172.34 157 171.68 157 171 C155.865625 170.731875 154.73125 170.46375 153.5625 170.1875 C152.386875 169.795625 151.21125 169.40375 150 169 C149.67 168.01 149.34 167.02 149 166 C147.35544725 165.28050817 145.68076231 164.63028587 144 164 C136.26827539 160.07420185 129.12178937 155.28810065 122.125 150.1875 C119.17135996 147.89880317 119.17135996 147.89880317 116 147 C116 146.34 116 145.68 116 145 C115.33484375 144.77957031 114.6696875 144.55914063 113.984375 144.33203125 C110.04314721 142.57292303 106.74605985 140.19964122 103.25 137.6875 C102.51426758 137.16422119 101.77853516 136.64094238 101.02050781 136.10180664 C94.78125383 131.63281193 88.67375222 126.99736047 82.62207031 122.27807617 C79.18098253 119.60543121 75.76158072 117.21229657 72 115 C70.29115995 113.37660195 68.62553283 111.70680947 67 110 C63.82331101 106.73254847 60.52335086 103.65832376 57.125 100.625 C51.8377628 95.88769832 46.68552098 91.12984544 42.1875 85.625 C40.2707913 82.9683878 40.2707913 82.9683878 38 82 C36.98051347 80.34518128 35.98455438 78.67583724 35 77 C33.53076343 74.99269387 32.05033863 72.99355718 30.5625 71 C21.50362104 58.58623324 10.9006812 43.20593793 7.375 28.0625 C6.77046456 25.30690996 6.77046456 25.30690996 6 23 C5.34 22.67 4.68 22.34 4 22 C3.21875 19.59375 3.21875 19.59375 2.5 16.5 C2.24734375 15.42105469 1.9946875 14.34210938 1.734375 13.23046875 C1.49203125 12.16441406 1.2496875 11.09835937 1 10 C0.77828125 9.08863281 0.5565625 8.17726563 0.328125 7.23828125 C-0.16475763 5.17017236 -0.58962955 3.0860498 -1 1 C-0.67 0.67 -0.34 0.34 0 0 Z " fill="#0F1740" transform="translate(57,377)"/>
<path d="M0 0 C0 0.66 0 1.32 0 2 C-3.14521607 4.09681072 -5.25833185 4.40396582 -8.96484375 4.75390625 C-11.04732875 5.00572305 -12.97143129 5.47148401 -15 6 C-28.71722193 8.89937728 -42.58805379 10.14977377 -56.57592773 10.65844727 C-60.92558784 10.7004689 -60.92558784 10.7004689 -65 12 C-66.73426063 12.07313698 -68.47135744 12.0836042 -70.20703125 12.0625 C-71.26269287 12.05371826 -72.31835449 12.04493652 -73.40600586 12.03588867 C-75.09222046 12.01812378 -75.09222046 12.01812378 -76.8125 12 C-100.07775904 11.56964124 -100.07775904 11.56964124 -119.125 23.6875 C-122.66808018 26.80537883 -122.66808018 26.80537883 -124 31 C-124.66 31 -125.32 31 -126 31 C-126.94032243 48.32049606 -127.14824553 65.59814112 -127.1328125 82.94140625 C-127.13303665 85.65185075 -127.13445899 88.36229446 -127.13571167 91.07273865 C-127.13751123 96.70075991 -127.13518164 102.32876788 -127.13037109 107.95678711 C-127.12488744 114.44698367 -127.12672947 120.937149 -127.1321975 127.42734486 C-127.13673863 133.0448437 -127.13737562 138.66233317 -127.13475883 144.27983326 C-127.13320733 147.61640472 -127.13337049 150.95294972 -127.13629532 154.28952217 C-127.13883258 157.99064391 -127.13496812 161.69170505 -127.12939453 165.39282227 C-127.13141876 166.48525742 -127.13344299 167.57769257 -127.13552856 168.70323181 C-127.1218792 173.59189934 -126.98184404 178.18979818 -126 183 C-125.95735959 184.68696119 -125.95928787 186.37549118 -126 188.0625 C-126.05214482 193.99211065 -125.83799602 199.8908776 -125.5625 205.8125 C-125.50352539 207.15550171 -125.50352539 207.15550171 -125.44335938 208.52563477 C-125.20648533 213.4120729 -124.7111833 218.15611373 -124 223 C-123.72534189 226.45933382 -123.56528965 229.92486191 -123.39453125 233.390625 C-123.22522141 236.47323175 -122.98182779 239.05451664 -122 242 C-121.79755234 244.28878326 -121.63577952 246.58129605 -121.5 248.875 C-121.25339352 253.02327323 -120.85380137 256.93777315 -120 261 C-119.71982921 263.59547107 -119.4996506 266.19166165 -119.28125 268.79296875 C-119.118722 271.0380229 -119.118722 271.0380229 -118 273 C-117.84400032 274.4762192 -117.72452982 275.95640147 -117.625 277.4375 C-117.1889077 282.24835951 -116.10184179 286.63081057 -114.765625 291.26171875 C-113.03419952 297.45421499 -111.65987958 303.53771205 -112 310 C-112.99 310 -113.98 310 -115 310 C-115.09796875 309.29359375 -115.1959375 308.5871875 -115.296875 307.859375 C-116.46152493 299.86746683 -117.95606256 291.97721219 -119.59082031 284.06933594 C-120.55152752 279.39167292 -121.36377321 274.73568808 -122 270 C-122.2784375 268.5459375 -122.2784375 268.5459375 -122.5625 267.0625 C-123.09681445 263.32229888 -123.06511365 259.77659198 -123 256 C-123.66 255.67 -124.32 255.34 -125 255 C-124.9690625 253.576875 -124.9690625 253.576875 -124.9375 252.125 C-124.93987787 249.35953239 -125.10587411 246.67368307 -125.41015625 243.92578125 C-126.17623136 236.50794856 -126.73555185 229.07414138 -127.30224609 221.63891602 C-127.43175969 219.95156168 -127.56351109 218.26437726 -127.69775391 216.57739258 C-129.72924128 191.03761392 -130.17518647 165.48641503 -130.23828125 139.875 C-130.24234894 138.44287095 -130.24646628 137.01074205 -130.25063133 135.57861328 C-130.26949083 128.86871329 -130.28378542 122.15882326 -130.2922433 115.44890213 C-130.30208546 107.77778639 -130.32866485 100.10695373 -130.36874419 92.43593788 C-130.3989733 86.44036449 -130.41371667 80.44487253 -130.41702431 74.44922447 C-130.41935725 70.8938954 -130.42809387 67.33887588 -130.45348549 63.78363037 C-130.48126337 59.83482771 -130.47691428 55.88640127 -130.4699707 51.9375 C-130.48278076 50.78516876 -130.49559082 49.63283752 -130.50878906 48.44558716 C-130.42720216 35.67649808 -126.15300475 26.83667195 -117.75 17.5 C-116 16 -116 16 -114 16 C-114 15.34 -114 14.68 -114 14 C-112.46163292 13.34634601 -110.91911234 12.70246397 -109.375 12.0625 C-108.51648438 11.70285156 -107.65796875 11.34320313 -106.7734375 10.97265625 C-101.01292194 8.9524191 -95.10762318 8.72335057 -89.0625 8.4375 C-88.18311768 8.3950415 -87.30373535 8.35258301 -86.39770508 8.30883789 C-72.94295388 7.74084236 -59.46320175 7.91496374 -46 8 C-45.67 7.34 -45.34 6.68 -45 6 C-42.55489713 5.70500625 -40.2047794 5.53227153 -37.75 5.4375 C-36.29554487 5.36252132 -34.84111803 5.28699191 -33.38671875 5.2109375 C-32.65372559 5.17581055 -31.92073242 5.14068359 -31.16552734 5.10449219 C-27.96255316 4.94994056 -24.76257787 4.76849835 -21.5625 4.5625 C-19.98662109 4.47162109 -19.98662109 4.47162109 -18.37890625 4.37890625 C-17.59386719 4.25386719 -16.80882812 4.12882812 -16 4 C-15.67 3.34 -15.34 2.68 -15 2 C-13.07421875 1.62109375 -13.07421875 1.62109375 -10.6875 1.4375 C-7.09189278 1.14628553 -3.56387951 0 0 0 Z " fill="#0D153C" transform="translate(169,67)"/>
<path d="M0 0 C2.87660688 0.2656022 5.55442581 0.99606985 8.34350586 1.72485352 C11.8618097 2.55125788 15.40551997 2.92297235 18.99609375 3.29296875 C19.68445313 3.37095703 20.3728125 3.44894531 21.08203125 3.52929688 C31.89258236 4.69306617 42.75075297 5.2401174 53.6171875 5.4765625 C54.38185333 5.49328506 55.14651917 5.51000763 55.93435669 5.52723694 C59.06121814 5.59303731 62.18805487 5.65566411 65.31518555 5.70727539 C79.59759693 5.95253634 91.59898464 6.74167651 102.68359375 16.73046875 C113.60335909 28.80979253 113.38544887 41.50056428 113.3359375 56.90625 C113.34977581 59.12031152 113.36606603 61.33435892 113.38465881 63.54838562 C113.42623124 69.36730149 113.43153463 75.18571941 113.42993164 81.00476074 C113.43475691 85.66677422 113.46561594 90.32843517 113.49782372 94.99032784 C113.66770459 119.75465887 113.58867772 144.48661294 112.49609375 169.23046875 C112.16609375 169.23046875 111.83609375 169.23046875 111.49609375 169.23046875 C111.16609375 164.94046875 110.83609375 160.65046875 110.49609375 156.23046875 C110.16609375 156.23046875 109.83609375 156.23046875 109.49609375 156.23046875 C109.49701554 155.64185373 109.49793734 155.05323872 109.49888706 154.44678688 C109.52102224 140.08953677 109.53754419 125.73228819 109.54790592 111.3750248 C109.55305064 104.43181366 109.56005839 97.48861395 109.5715332 90.54541016 C109.58260795 83.8410565 109.58838342 77.13671716 109.59097099 70.43235397 C109.59281433 67.87839954 109.59641389 65.32444574 109.60182381 62.77049637 C109.60911459 59.18503686 109.6100813 55.59962592 109.60961914 52.01416016 C109.61501205 50.44106079 109.61501205 50.44106079 109.62051392 48.83618164 C109.61181729 42.57441971 109.24903712 36.44740151 108.49609375 30.23046875 C107.83609375 30.23046875 107.17609375 30.23046875 106.49609375 30.23046875 C106.49609375 28.58046875 106.49609375 26.93046875 106.49609375 25.23046875 C105.01109375 24.73546875 105.01109375 24.73546875 103.49609375 24.23046875 C102.80859375 22.16796875 102.80859375 22.16796875 102.49609375 20.23046875 C101.83609375 20.23046875 101.17609375 20.23046875 100.49609375 20.23046875 C99.50609375 18.86921875 99.50609375 18.86921875 98.49609375 17.48046875 C94.62575906 12.69347585 89.17265166 10.74804244 83.18261719 9.90478516 C75.78339563 9.13195359 68.42743308 9.14602171 60.99609375 9.23046875 C58.69405699 9.25593376 56.39196584 9.27698179 54.08984375 9.29296875 C53.08630859 9.30457031 52.08277344 9.31617187 51.04882812 9.328125 C48.49609375 9.23046875 48.49609375 9.23046875 45.49609375 8.23046875 C43.57843781 8.08107101 41.65662853 7.98236592 39.734375 7.9140625 C38.05698242 7.8512207 38.05698242 7.8512207 36.34570312 7.78710938 C35.17845703 7.74779297 34.01121094 7.70847656 32.80859375 7.66796875 C31.62974609 7.62478516 30.45089844 7.58160156 29.23632812 7.53710938 C26.32303492 7.43095699 23.40965618 7.32890633 20.49609375 7.23046875 C20.49609375 6.57046875 20.49609375 5.91046875 20.49609375 5.23046875 C19.04589844 5.26527344 19.04589844 5.26527344 17.56640625 5.30078125 C2.19134247 5.51390095 2.19134247 5.51390095 -4.50390625 3.23046875 C-5.16390625 2.57046875 -5.82390625 1.91046875 -6.50390625 1.23046875 C-4.72095333 -0.55248417 -2.37259385 0.05251214 0 0 Z " fill="#6086AF" transform="translate(448.50390625,69.76953125)"/>
<path d="M0 0 C0 0.66 0 1.32 0 2 C-3.14521607 4.09681072 -5.25833185 4.40396582 -8.96484375 4.75390625 C-11.04732875 5.00572305 -12.97143129 5.47148401 -15 6 C-28.71722193 8.89937728 -42.58805379 10.14977377 -56.57592773 10.65844727 C-60.92558784 10.7004689 -60.92558784 10.7004689 -65 12 C-66.54023996 12.06950541 -68.08334988 12.08452357 -69.625 12.0625 C-70.85089844 12.04896484 -70.85089844 12.04896484 -72.1015625 12.03515625 C-73.04128906 12.01775391 -73.04128906 12.01775391 -74 12 C-73.01 11.67 -72.02 11.34 -71 11 C-71 10.34 -71 9.68 -71 9 C-62.64736824 8.04541351 -54.40215965 7.88960666 -46 8 C-45.67 7.34 -45.34 6.68 -45 6 C-42.55489713 5.70500625 -40.2047794 5.53227153 -37.75 5.4375 C-36.29554487 5.36252132 -34.84111803 5.28699191 -33.38671875 5.2109375 C-32.65372559 5.17581055 -31.92073242 5.14068359 -31.16552734 5.10449219 C-27.96255316 4.94994056 -24.76257787 4.76849835 -21.5625 4.5625 C-19.98662109 4.47162109 -19.98662109 4.47162109 -18.37890625 4.37890625 C-17.59386719 4.25386719 -16.80882812 4.12882812 -16 4 C-15.67 3.34 -15.34 2.68 -15 2 C-13.07421875 1.62109375 -13.07421875 1.62109375 -10.6875 1.4375 C-7.09189278 1.14628553 -3.56387951 0 0 0 Z " fill="#0E153C" transform="translate(169,67)"/>
<path d="M0 0 C0.33 0 0.66 0 1 0 C2.35252418 27.05710542 3.54819001 53.93115212 2 81 C1.67 81 1.34 81 1 81 C0.505 74.565 0.505 74.565 0 68 C-0.33 68 -0.66 68 -1 68 C-1.02321255 60.01983191 -1.04096044 52.03967803 -1.05181217 44.05948448 C-1.05702153 40.353609 -1.0640837 36.64775668 -1.07543945 32.94189453 C-1.08633768 29.36277668 -1.0922915 25.78368105 -1.09487724 22.20454788 C-1.09671902 20.84187088 -1.10031549 19.47919504 -1.10573006 18.11652756 C-1.11303249 16.2018834 -1.11340884 14.28721667 -1.11352539 12.37255859 C-1.115746 11.28445892 -1.11796661 10.19635925 -1.12025452 9.07528687 C-0.99894288 5.97296606 -0.57739005 3.0476571 0 0 Z " fill="#54769F" transform="translate(559,158)"/>
<path d="M0 0 C0 3.54241999 -0.45400919 3.84418107 -2.81640625 6.29296875 C-3.71093506 7.23329956 -3.71093506 7.23329956 -4.62353516 8.19262695 C-5.26339355 8.85093506 -5.90325195 9.50924316 -6.5625 10.1875 C-7.85393045 11.53804409 -9.1443065 12.88959726 -10.43359375 14.2421875 C-11.05347168 14.89026367 -11.67334961 15.53833984 -12.31201172 16.20605469 C-14.84815673 18.90139654 -17.22983218 21.71652427 -19.5703125 24.58203125 C-21 26 -21 26 -22.8828125 26.93359375 C-25.61723799 28.31089663 -27.5172275 30.15944231 -29.75 32.25 C-33.51118661 35.71029168 -37.33099505 38.86152769 -41.50390625 41.80859375 C-43.14898066 42.94705759 -43.14898066 42.94705759 -44 45 C-45.32 44.67 -46.64 44.34 -48 44 C-46.625 42.5 -46.625 42.5 -45 41 C-44.34 41 -43.68 41 -43 41 C-42.67 40.01 -42.34 39.02 -42 38 C-39.4375 36.8125 -39.4375 36.8125 -37 36 C-37 35.34 -37 34.68 -37 34 C-36.34 34 -35.68 34 -35 34 C-34.67 33.01 -34.34 32.02 -34 31 C-33.2575 30.71125 -32.515 30.4225 -31.75 30.125 C-28.2698678 28.70130955 -26.59895265 26.71983417 -24 24 C-22.71781989 22.86419986 -21.42535406 21.73994712 -20.125 20.625 C-13.20071478 15.03513306 -13.20071478 15.03513306 -8.03125 7.99609375 C-6.81394004 5.63986122 -5.42235125 4.41821213 -3.375 2.75 C-2.74335938 2.22921875 -2.11171875 1.7084375 -1.4609375 1.171875 C-0.73777344 0.59179688 -0.73777344 0.59179688 0 0 Z " fill="#14214B" transform="translate(504,456)"/>
<path d="M0 0 C0.33 0 0.66 0 1 0 C2.47396198 17.3716948 2.26058754 34.62190029 1 52 C0.67 52 0.34 52 0 52 C0 50.35 0 48.7 0 47 C-0.66 46.67 -1.32 46.34 -2 46 C-1.34 30.82 -0.68 15.64 0 0 Z " fill="#4B6A91" transform="translate(558,230)"/>
<path d="M0 0 C7.8684386 1.77039868 13.3687321 7.6786928 18 14 C19.5546875 16.9375 19.5546875 16.9375 20.875 20 C21.55175781 21.5159375 21.55175781 21.5159375 22.2421875 23.0625 C23.13302046 26.51562571 22.64934382 27.90605849 21 31 C20.67 31 20.34 31 20 31 C19.505 26.05 19.505 26.05 19 21 C18.34 21 17.68 21 17 21 C17 19.35 17 17.7 17 16 C16.01 15.67 15.02 15.34 14 15 C13.3125 12.9375 13.3125 12.9375 13 11 C12.34 11 11.68 11 11 11 C10.29875 10.071875 9.5975 9.14375 8.875 8.1875 C5.8477152 4.34203012 2.60883253 3.4060845 -2 2 C-1.34 1.34 -0.68 0.68 0 0 Z " fill="#6790B9" transform="translate(538,79)"/>
<path d="M0 0 C2.86074007 0.26413719 5.51381071 1.00193811 8.28637695 1.72924805 C12.86221611 2.76716626 17.55841857 3.03401045 22.22460938 3.44140625 C26.01954051 3.81164343 28.26930959 4.07927931 31.49609375 6.23046875 C27.37060318 6.11926223 23.24591868 5.98895823 19.12109375 5.85546875 C17.96480469 5.82453125 16.80851562 5.79359375 15.6171875 5.76171875 C-2.58984375 5.14453125 -2.58984375 5.14453125 -6.50390625 1.23046875 C-4.72095333 -0.55248417 -2.37259385 0.05251214 0 0 Z " fill="#53769F" transform="translate(448.50390625,69.76953125)"/>
<path d="M0 0 C0 0.66 0 1.32 0 2 C-3.14521607 4.09681072 -5.25833185 4.40396582 -8.96484375 4.75390625 C-11.04844128 5.00585758 -12.96952906 5.47329889 -15 6 C-21.05666516 7.27069392 -26.8034172 8.27540368 -33 8 C-33 7.34 -33 6.68 -33 6 C-21.47835991 3.70387244 -21.47835991 3.70387244 -16 4 C-15.67 3.34 -15.34 2.68 -15 2 C-13.07421875 1.62109375 -13.07421875 1.62109375 -10.6875 1.4375 C-7.09189278 1.14628553 -3.56387951 0 0 0 Z " fill="#161F47" transform="translate(169,67)"/>
<path d="M0 0 C0 0.66 0 1.32 0 2 C-9.72206555 3.43440311 -19.24076661 2.65128354 -29 2 C-26.61274921 -0.38725079 -25.94308582 -0.29151927 -22.67578125 -0.44921875 C-21.37930664 -0.51399414 -21.37930664 -0.51399414 -20.05664062 -0.58007812 C-19.15107422 -0.61552734 -18.24550781 -0.65097656 -17.3125 -0.6875 C-15.9831543 -0.75807617 -15.9831543 -0.75807617 -14.62695312 -0.83007812 C-9.59051217 -1.05748219 -4.96150901 -0.90270957 0 0 Z " fill="#090F34" transform="translate(98,76)"/>
<path d="M0 0 C-11.16234888 5.20379965 -11.16234888 5.20379965 -17 7 C-17.99 7.495 -17.99 7.495 -19 8 C-20.54023996 8.06950541 -22.08334988 8.08452357 -23.625 8.0625 C-24.85089844 8.04896484 -24.85089844 8.04896484 -26.1015625 8.03515625 C-27.04128906 8.01775391 -27.04128906 8.01775391 -28 8 C-27 6 -27 6 -24.83862305 5.11450195 C-21.79120247 4.16993054 -18.74306487 3.23045718 -15.6875 2.3125 C-14.62853516 1.97927734 -13.56957031 1.64605469 -12.47851562 1.30273438 C-11.45822266 0.99271484 -10.43792969 0.68269531 -9.38671875 0.36328125 C-8.45045654 0.07751221 -7.51419434 -0.20825684 -6.54956055 -0.50268555 C-3.93436655 -1.01280239 -2.48525671 -0.87438138 0 0 Z " fill="#18254E" transform="translate(198,60)"/>
<path d="M0 0 C-2.88951689 1.6571108 -5.78760739 3.29862468 -8.6875 4.9375 C-9.50412109 5.40607422 -10.32074219 5.87464844 -11.16210938 6.35742188 C-12.35610352 7.0293457 -12.35610352 7.0293457 -13.57421875 7.71484375 C-14.30213623 8.12855225 -15.03005371 8.54226074 -15.7800293 8.96850586 C-18.17866884 10.08301725 -20.39633628 10.58173273 -23 11 C-23 10.34 -23 9.68 -23 9 C-19.73735861 7.29629989 -16.46372527 5.61490938 -13.1875 3.9375 C-12.25873047 3.45216797 -11.32996094 2.96683594 -10.37304688 2.46679688 C-9.48037109 2.01240234 -8.58769531 1.55800781 -7.66796875 1.08984375 C-6.84578857 0.66566162 -6.0236084 0.24147949 -5.17651367 -0.19555664 C-3 -1 -3 -1 0 0 Z " fill="#1E2E56" transform="translate(239,41)"/>
<path d="M0 0 C2.41696872 -0.05411124 4.83271787 -0.09372278 7.25 -0.125 C7.93191406 -0.14175781 8.61382812 -0.15851562 9.31640625 -0.17578125 C13.0608235 -0.21213482 15.82352727 -0.07944349 19 2 C15.96570323 3.51714839 12.82398333 3.14363916 9.5 3.125 C8.81035156 3.12886719 8.12070312 3.13273438 7.41015625 3.13671875 C2.25333293 3.12666646 2.25333293 3.12666646 0 2 C0 1.34 0 0.68 0 0 Z " fill="#3A5075" transform="translate(294,10)"/>
<path d="M0 0 C2 2 2 2 2.23046875 4.1015625 C2.13889527 9.47942306 1.78848574 14.67772123 1 20 C-2.85577028 14.21634458 -0.96148196 6.61018848 0 0 Z " fill="#415C82" transform="translate(554,304)"/>
<path d="M0 0 C1.72926874 0.31193464 3.45841044 0.62457362 5.1875 0.9375 C6.15042969 1.11152344 7.11335938 1.28554687 8.10546875 1.46484375 C10.74239972 1.9523735 13.3719905 2.46671105 16 3 C15.67 3.66 15.34 4.32 15 5 C8.79029227 5.33266291 4.71735105 4.45029331 -1 2 C-0.67 1.34 -0.34 0.68 0 0 Z " fill="#507099" transform="translate(426,66)"/>
<path d="M0 0 C5.68502535 1.64566523 10.76681636 4.29032784 16 7 C15.67 7.66 15.34 8.32 15 9 C9.52067211 7.45454854 4.88570819 4.84456788 0 2 C0 1.34 0 0.68 0 0 Z " fill="#476287" transform="translate(362,40)"/>
<path d="M0 0 C4.72065967 1.54269924 9.41664092 3.07794619 14 5 C13.67 5.66 13.34 6.32 13 7 C8.14036821 6.39254603 4.2594482 4.27241033 0 2 C0 1.34 0 0.68 0 0 Z " fill="#456288" transform="translate(382,50)"/>
<path d="M0 0 C0.66 0 1.32 0 2 0 C1.67 4.29 1.34 8.58 1 13 C-1 11 -1 11 -1.23046875 8.65234375 C-1.21628906 7.75644531 -1.20210937 6.86054688 -1.1875 5.9375 C-1.18105469 5.03902344 -1.17460938 4.14054687 -1.16796875 3.21484375 C-1 1 -1 1 0 0 Z " fill="#3E577F" transform="translate(552,325)"/>
<path d="M0 0 C3 1 3 1 4.01953125 2.671875 C6.1802521 8.33445378 6.1802521 8.33445378 5.1875 12 C4.795625 12.66 4.40375 13.32 4 14 C3.67 14 3.34 14 3 14 C2.67 10.7 2.34 7.4 2 4 C1.34 4 0.68 4 0 4 C0 2.68 0 1.36 0 0 Z " fill="#6D96BE" transform="translate(555,96)"/>
<path d="M0 0 C5.94 1.485 5.94 1.485 12 3 C11.34 3.66 10.68 4.32 10 5 C7.3984375 4.7578125 7.3984375 4.7578125 4.375 4.125 C3.37210937 3.92132813 2.36921875 3.71765625 1.3359375 3.5078125 C0.17964844 3.25644531 0.17964844 3.25644531 -1 3 C-0.67 2.01 -0.34 1.02 0 0 Z " fill="#4B6A91" transform="translate(407,60)"/>
<path d="M0 0 C5.95703125 -0.29296875 5.95703125 -0.29296875 8 0 C8.99 0.99 9.98 1.98 11 3 C7.37 3 3.74 3 0 3 C0 2.01 0 1.02 0 0 Z " fill="#50729B" transform="translate(443,70)"/>
<path d="M0 0 C-0.66 0 -1.32 0 -2 0 C-2 0.66 -2 1.32 -2 2 C-5.13498292 3.85776765 -7.37471432 4.20140476 -11 4 C-11 3.34 -11 2.68 -11 2 C-9.73392393 1.46770674 -8.46189588 0.94955456 -7.1875 0.4375 C-6.47980469 0.14746094 -5.77210938 -0.14257812 -5.04296875 -0.44140625 C-3 -1 -3 -1 0 0 Z " fill="#1D2A54" transform="translate(210,55)"/>
<path d="M0 0 C0.66 0.66 1.32 1.32 2 2 C1.9765625 4.6015625 1.9765625 4.6015625 1.625 7.625 C1.51414062 8.62789063 1.40328125 9.63078125 1.2890625 10.6640625 C1.19367187 11.43492187 1.09828125 12.20578125 1 13 C-1.30143236 9.54785147 -1.13833854 8.76520676 -0.625 4.8125 C-0.51414062 3.91144531 -0.40328125 3.01039063 -0.2890625 2.08203125 C-0.19367187 1.39496094 -0.09828125 0.70789063 0 0 Z " fill="#3B547C" transform="translate(550,337)"/>
<path d="M0 0 C3.96 0 7.92 0 12 0 C9 3 9 3 6.9921875 3.14453125 C4.98323763 2.82947454 2.99022526 2.4173053 1 2 C0.67 1.34 0.34 0.68 0 0 Z " fill="#070B2E" transform="translate(294,589)"/>
<path d="M0 0 C0 3.58912412 -0.66436554 4.10857029 -3 6.6875 C-3.556875 7.31011719 -4.11375 7.93273437 -4.6875 8.57421875 C-5.120625 9.04472656 -5.55375 9.51523437 -6 10 C-6.66 9.67 -7.32 9.34 -8 9 C-6.90101298 5.70303895 -6.05402613 4.95329411 -3.4375 2.8125 C-2.79683594 2.28269531 -2.15617187 1.75289063 -1.49609375 1.20703125 C-0.75552734 0.60955078 -0.75552734 0.60955078 0 0 Z " fill="#1B2C56" transform="translate(504,456)"/>
<path d="M0 0 C0.99 0 1.98 0 3 0 C2.67 2.97 2.34 5.94 2 9 C0 7 0 7 -0.125 3.375 C-0.08375 2.26125 -0.0425 1.1475 0 0 Z " fill="#3A5079" transform="translate(545,360)"/>
<path d="M0 0 C0.66 0.33 1.32 0.66 2 1 C1.67 3.97 1.34 6.94 1 10 C-0.625 8.375 -0.625 8.375 -2 6 C-1.1875 2.75 -1.1875 2.75 0 0 Z " fill="#3D547C" transform="translate(548,350)"/>
<path d="M0 0 C2.4294516 3.6441774 2.16179575 5.71241272 2 10 C1.01 9.67 0.02 9.34 -1 9 C-1.625 6.1875 -1.625 6.1875 -2 3 C-1.34 2.01 -0.68 1.02 0 0 Z " fill="#141E48" transform="translate(45,306)"/>
<path d="M0 0 C2.31 0 4.62 0 7 0 C7 0.99 7 1.98 7 3 C3.7 3 0.4 3 -3 3 C-2.01 2.67 -1.02 2.34 0 2 C0 1.34 0 0.68 0 0 Z " fill="#19234C" transform="translate(98,76)"/>
<path d="M0 0 C3.45925163 1.2491742 6.14693203 2.67527795 9 5 C8.01 5.495 8.01 5.495 7 6 C4.64018187 5.06421005 2.30368736 4.06652192 0 3 C0 2.01 0 1.02 0 0 Z " fill="#405B80" transform="translate(351,34)"/>
<path d="M0 0 C0.99 0 1.98 0 3 0 C1.125 5.75 1.125 5.75 0 8 C-0.66 8 -1.32 8 -2 8 C-2 6.68 -2 5.36 -2 4 C-1.34 4 -0.68 4 0 4 C0 2.68 0 1.36 0 0 Z " fill="#253861" transform="translate(527,417)"/>
<path d="M0 0 C1.5625 1.5 1.5625 1.5 3 4 C2.96823234 6.77437543 2.50364148 9.25286467 2 12 C-0.13586678 8.79619983 -0.23132175 7.98060033 -0.125 4.3125 C-0.10695313 3.50425781 -0.08890625 2.69601562 -0.0703125 1.86328125 C-0.04710937 1.24839844 -0.02390625 0.63351562 0 0 Z " fill="#45628A" transform="translate(555,294)"/>
<path d="M0 0 C-1.28524261 0.86380259 -2.57842419 1.71580369 -3.875 2.5625 C-4.59429687 3.03816406 -5.31359375 3.51382812 -6.0546875 4.00390625 C-6.69664062 4.33261719 -7.33859375 4.66132813 -8 5 C-8.66 4.67 -9.32 4.34 -10 4 C-4.4 -2.2 -4.4 -2.2 0 0 Z " fill="#32456D" transform="translate(284,16)"/>
<path d="M0 0 C5.75 1.875 5.75 1.875 8 3 C8 3.66 8 4.32 8 5 C4.62537285 4.45276317 2.91765 3.9451 0 2 C0 1.34 0 0.68 0 0 Z " fill="#3C577E" transform="translate(362,40)"/>
<path d="M0 0 C0.66 0.33 1.32 0.66 2 1 C1.67 3.64 1.34 6.28 1 9 C0.34 8.34 -0.32 7.68 -1 7 C-0.625 3.375 -0.625 3.375 0 0 Z " fill="#344A72" transform="translate(544,368)"/>
<path d="M0 0 C0.66 0.66 1.32 1.32 2 2 C1.34 2 0.68 2 0 2 C0 1.34 0 0.68 0 0 Z " fill="#141F52" transform="translate(112,484)"/>
<path d="" fill="#0F194C" transform="translate(0,0)"/>
<path d="M0 0 C2 1 2 1 2 1 Z " fill="#141F50" transform="translate(339,583)"/>
<path d="M0 0 C2 1 2 1 2 1 Z " fill="#142053" transform="translate(366,564)"/>
<path d="" fill="#0F1B4F" transform="translate(0,0)"/>
<path d="M0 0 C2 1 2 1 2 1 Z " fill="#253962" transform="translate(531,417)"/>
<path d="" fill="#08103A" transform="translate(0,0)"/>
<path d="" fill="#1A295A" transform="translate(0,0)"/>
<path d="" fill="#243766" transform="translate(0,0)"/>
<path d="" fill="#283C6B" transform="translate(0,0)"/>
<path d="" fill="#354D7B" transform="translate(0,0)"/>
<path d="M0 0 C2 1 2 1 2 1 Z " fill="#354D7C" transform="translate(275,11)"/>
<path d="" fill="#0F173E" transform="translate(0,0)"/>
<path d="" fill="#121943" transform="translate(0,0)"/>
<path d="" fill="#0A0F40" transform="translate(0,0)"/>
<path d="" fill="#0F1742" transform="translate(0,0)"/>
<path d="" fill="#091340" transform="translate(0,0)"/>
<path d="" fill="#142154" transform="translate(0,0)"/>
<path d="" fill="#0E1542" transform="translate(0,0)"/>
<path d="" fill="#121944" transform="translate(0,0)"/>
<path d="" fill="#131E4D" transform="translate(0,0)"/>
<path d="" fill="#152054" transform="translate(0,0)"/>
<path d="" fill="#142051" transform="translate(0,0)"/>
<path d="" fill="#1D295A" transform="translate(0,0)"/>
<path d="" fill="#0A0E32" transform="translate(0,0)"/>
<path d="" fill="#0F1741" transform="translate(0,0)"/>
<path d="" fill="#0E1642" transform="translate(0,0)"/>
<path d="" fill="#182457" transform="translate(0,0)"/>
<path d="" fill="#111941" transform="translate(0,0)"/>
<path d="" fill="#10163E" transform="translate(0,0)"/>
<path d="" fill="#141F51" transform="translate(0,0)"/>
<path d="" fill="#131B44" transform="translate(0,0)"/>
<path d="" fill="#141F51" transform="translate(0,0)"/>
<path d="" fill="#141F51" transform="translate(0,0)"/>
<path d="" fill="#0D143B" transform="translate(0,0)"/>
<path d="" fill="#131D4D" transform="translate(0,0)"/>
<path d="" fill="#0D133B" transform="translate(0,0)"/>
<path d="" fill="#101843" transform="translate(0,0)"/>
<path d="" fill="#0F1743" transform="translate(0,0)"/>
<path d="" fill="#0D1542" transform="translate(0,0)"/>
<path d="" fill="#101742" transform="translate(0,0)"/>
<path d="" fill="#101945" transform="translate(0,0)"/>
<path d="" fill="#101844" transform="translate(0,0)"/>
<path d="" fill="#202E61" transform="translate(0,0)"/>
<path d="" fill="#0F1842" transform="translate(0,0)"/>
<path d="" fill="#040635" transform="translate(0,0)"/>
<path d="" fill="#232E64" transform="translate(0,0)"/>
<path d="" fill="#131D4D" transform="translate(0,0)"/>
<path d="" fill="#162351" transform="translate(0,0)"/>
<path d="" fill="#0F1641" transform="translate(0,0)"/>
<path d="" fill="#131E53" transform="translate(0,0)"/>
<path d="" fill="#162453" transform="translate(0,0)"/>
<path d="" fill="#1A295B" transform="translate(0,0)"/>
<path d="" fill="#1F2F61" transform="translate(0,0)"/>
<path d="" fill="#27376B" transform="translate(0,0)"/>
<path d="" fill="#0F1943" transform="translate(0,0)"/>
<path d="" fill="#131D4D" transform="translate(0,0)"/>
<path d="" fill="#1C2C5E" transform="translate(0,0)"/>
<path d="" fill="#1A2A5A" transform="translate(0,0)"/>
<path d="" fill="#121D47" transform="translate(0,0)"/>
<path d="" fill="#0E1542" transform="translate(0,0)"/>
<path d="" fill="#18244E" transform="translate(0,0)"/>
<path d="" fill="#121B48" transform="translate(0,0)"/>
<path d="" fill="#1C2B55" transform="translate(0,0)"/>
<path d="" fill="#1E2F5D" transform="translate(0,0)"/>
<path d="" fill="#141F53" transform="translate(0,0)"/>
<path d="" fill="#1D2E5A" transform="translate(0,0)"/>
<path d="" fill="#0A103E" transform="translate(0,0)"/>
<path d="" fill="#112049" transform="translate(0,0)"/>
<path d="" fill="#162256" transform="translate(0,0)"/>
<path d="" fill="#0A0F33" transform="translate(0,0)"/>
<path d="" fill="#040628" transform="translate(0,0)"/>
<path d="" fill="#223562" transform="translate(0,0)"/>
<path d="" fill="#111D47" transform="translate(0,0)"/>
<path d="" fill="#141F51" transform="translate(0,0)"/>
<path d="" fill="#121C49" transform="translate(0,0)"/>
<path d="" fill="#253660" transform="translate(0,0)"/>
<path d="" fill="#233664" transform="translate(0,0)"/>
<path d="" fill="#131D4D" transform="translate(0,0)"/>
<path d="" fill="#131D4D" transform="translate(0,0)"/>
<path d="" fill="#131D4D" transform="translate(0,0)"/>
<path d="" fill="#182C56" transform="translate(0,0)"/>
<path d="" fill="#202D5E" transform="translate(0,0)"/>
<path d="" fill="#243762" transform="translate(0,0)"/>
<path d="" fill="#182D5A" transform="translate(0,0)"/>
<path d="" fill="#162B5B" transform="translate(0,0)"/>
<path d="" fill="#0A0D33" transform="translate(0,0)"/>
<path d="" fill="#141F51" transform="translate(0,0)"/>
<path d="" fill="#172C56" transform="translate(0,0)"/>
<path d="" fill="#080C2E" transform="translate(0,0)"/>
<path d="" fill="#182457" transform="translate(0,0)"/>
<path d="" fill="#293D68" transform="translate(0,0)"/>
<path d="" fill="#142053" transform="translate(0,0)"/>
<path d="" fill="#131D4D" transform="translate(0,0)"/>
<path d="" fill="#131D4D" transform="translate(0,0)"/>
<path d="" fill="#273D66" transform="translate(0,0)"/>
<path d="" fill="#131D4D" transform="translate(0,0)"/>
<path d="" fill="#070A35" transform="translate(0,0)"/>
<path d="" fill="#2F456D" transform="translate(0,0)"/>
<path d="" fill="#344D7B" transform="translate(0,0)"/>
<path d="" fill="#131D4D" transform="translate(0,0)"/>
<path d="" fill="#364F7D" transform="translate(0,0)"/>
<path d="" fill="#27406C" transform="translate(0,0)"/>
<path d="" fill="#131F50" transform="translate(0,0)"/>
<path d="" fill="#142052" transform="translate(0,0)"/>
<path d="" fill="#142052" transform="translate(0,0)"/>
<path d="" fill="#142052" transform="translate(0,0)"/>
<path d="" fill="#131F50" transform="translate(0,0)"/>
<path d="" fill="#3B5681" transform="translate(0,0)"/>
<path d="" fill="#3F5C89" transform="translate(0,0)"/>
<path d="" fill="#42608E" transform="translate(0,0)"/>
<path d="" fill="#131F50" transform="translate(0,0)"/>
<path d="" fill="#131F50" transform="translate(0,0)"/>
<path d="" fill="#2C4B77" transform="translate(0,0)"/>
<path d="" fill="#141F51" transform="translate(0,0)"/>
<path d="" fill="#04072A" transform="translate(0,0)"/>
<path d="" fill="#5075A3" transform="translate(0,0)"/>
<path d="" fill="#4B6D92" transform="translate(0,0)"/>
<path d="" fill="#5378A6" transform="translate(0,0)"/>
<path d="" fill="#080D34" transform="translate(0,0)"/>
<path d="" fill="#6592C2" transform="translate(0,0)"/>
<path d="" fill="#142051" transform="translate(0,0)"/>
<path d="" fill="#152153" transform="translate(0,0)"/>
<path d="" fill="#142051" transform="translate(0,0)"/>
<path d="" fill="#142051" transform="translate(0,0)"/>
<path d="" fill="#1E2A5A" transform="translate(0,0)"/>
<path d="" fill="#5D85B1" transform="translate(0,0)"/>
<path d="" fill="#0A0F3D" transform="translate(0,0)"/>
<path d="" fill="#608BBB" transform="translate(0,0)"/>
<path d="" fill="#5B86B5" transform="translate(0,0)"/>
<path d="" fill="#618CBD" transform="translate(0,0)"/>
<path d="" fill="#608CBD" transform="translate(0,0)"/>
<path d="" fill="#202D5F" transform="translate(0,0)"/>
<path d="" fill="#162255" transform="translate(0,0)"/>
<path d="" fill="#141F50" transform="translate(0,0)"/>
<path d="" fill="#608BBB" transform="translate(0,0)"/>
<path d="" fill="#5A82AF" transform="translate(0,0)"/>
<path d="" fill="#608ABB" transform="translate(0,0)"/>
<path d="" fill="#456A95" transform="translate(0,0)"/>
<path d="" fill="#141F50" transform="translate(0,0)"/>
<path d="" fill="#131E4C" transform="translate(0,0)"/>
<path d="" fill="#608BBB" transform="translate(0,0)"/>
<path d="" fill="#577EAB" transform="translate(0,0)"/>
<path d="" fill="#557BA9" transform="translate(0,0)"/>
<path d="" fill="#152151" transform="translate(0,0)"/>
<path d="" fill="#0D153F" transform="translate(0,0)"/>
<path d="" fill="#5076A5" transform="translate(0,0)"/>
<path d="" fill="#4B6C95" transform="translate(0,0)"/>
<path d="" fill="#1C2B5C" transform="translate(0,0)"/>
<path d="" fill="#1B2A5B" transform="translate(0,0)"/>
<path d="" fill="#1C2C5C" transform="translate(0,0)"/>
<path d="" fill="#1B2A5B" transform="translate(0,0)"/>
<path d="" fill="#5076A5" transform="translate(0,0)"/>
<path d="" fill="#4E73A2" transform="translate(0,0)"/>
<path d="" fill="#0D1845" transform="translate(0,0)"/>
<path d="" fill="#1B295A" transform="translate(0,0)"/>
<path d="" fill="#1A295A" transform="translate(0,0)"/>
<path d="" fill="#5379AA" transform="translate(0,0)"/>
<path d="" fill="#15224F" transform="translate(0,0)"/>
<path d="" fill="#131E48" transform="translate(0,0)"/>
<path d="" fill="#486A93" transform="translate(0,0)"/>
<path d="" fill="#4B6D9C" transform="translate(0,0)"/>
<path d="" fill="#4C70A0" transform="translate(0,0)"/>
<path d="" fill="#203161" transform="translate(0,0)"/>
<path d="" fill="#203161" transform="translate(0,0)"/>
<path d="" fill="#20315F" transform="translate(0,0)"/>
<path d="" fill="#476995" transform="translate(0,0)"/>
<path d="" fill="#1E2E5C" transform="translate(0,0)"/>
<path d="" fill="#486998" transform="translate(0,0)"/>
<path d="" fill="#42628D" transform="translate(0,0)"/>
<path d="" fill="#42608C" transform="translate(0,0)"/>
<path d="" fill="#395985" transform="translate(0,0)"/>
<path d="" fill="#243663" transform="translate(0,0)"/>
<path d="" fill="#4B6D9B" transform="translate(0,0)"/>
<path d="" fill="#203158" transform="translate(0,0)"/>
<path d="" fill="#405E89" transform="translate(0,0)"/>
<path d="" fill="#3F5D88" transform="translate(0,0)"/>
<path d="" fill="#314F77" transform="translate(0,0)"/>
<path d="" fill="#415F8D" transform="translate(0,0)"/>
<path d="" fill="#2C4170" transform="translate(0,0)"/>
<path d="" fill="#3D5A84" transform="translate(0,0)"/>
<path d="" fill="#456492" transform="translate(0,0)"/>
<path d="" fill="#405B81" transform="translate(0,0)"/>
<path d="" fill="#2D4372" transform="translate(0,0)"/>
<path d="" fill="#3F5D8B" transform="translate(0,0)"/>
<path d="" fill="#2C4270" transform="translate(0,0)"/>
<path d="" fill="#395279" transform="translate(0,0)"/>
<path d="" fill="#2F4573" transform="translate(0,0)"/>
<path d="" fill="#3A557F" transform="translate(0,0)"/>
<path d="" fill="#2A456E" transform="translate(0,0)"/>
<path d="" fill="#38517F" transform="translate(0,0)"/>
<path d="" fill="#2D426E" transform="translate(0,0)"/>
<path d="" fill="#344D75" transform="translate(0,0)"/>
<path d="" fill="#2D416A" transform="translate(0,0)"/>
<path d="" fill="#304672" transform="translate(0,0)"/>
<path d="" fill="#273E68" transform="translate(0,0)"/>
<path d="" fill="#38537F" transform="translate(0,0)"/>
<path d="" fill="#344C7A" transform="translate(0,0)"/>
<path d="" fill="#334A73" transform="translate(0,0)"/>
<path d="" fill="#354D7C" transform="translate(0,0)"/>
<path d="" fill="#38537F" transform="translate(0,0)"/>
<path d="" fill="#294169" transform="translate(0,0)"/>
<path d="" fill="#2B436F" transform="translate(0,0)"/>
<path d="" fill="#344C79" transform="translate(0,0)"/>
<path d="" fill="#354D7B" transform="translate(0,0)"/>
</svg>
